<mxfile host="Electron" modified="2024-06-10T16:03:16.080Z" agent="Mozilla/5.0 (X11; Linux x86_64) AppleWebKit/537.36 (KHTML, like Gecko) draw.io/24.4.8 Chrome/124.0.6367.243 Electron/30.1.0 Safari/537.36" etag="wWKJEFmSxJLiu5lqzixh" version="24.4.8" type="device">
  <diagram name="Page-1" id="vSwhyiz1Xy6Y2kjDcV_P">
    <mxGraphModel dx="989" dy="576" grid="1" gridSize="10" guides="1" tooltips="1" connect="1" arrows="1" fold="1" page="1" pageScale="1" pageWidth="827" pageHeight="1169" background="none" math="1" shadow="0">
      <root>
        <mxCell id="0" />
        <mxCell id="1" parent="0" />
        <mxCell id="bgm6wxLMQWX_yGzGKck9-105" style="edgeStyle=orthogonalEdgeStyle;rounded=0;orthogonalLoop=1;jettySize=auto;html=1;startArrow=classic;startFill=1;endArrow=none;endFill=0;" parent="1" source="bgm6wxLMQWX_yGzGKck9-99" edge="1">
          <mxGeometry relative="1" as="geometry">
            <mxPoint x="470" y="930" as="targetPoint" />
          </mxGeometry>
        </mxCell>
        <mxCell id="bgm6wxLMQWX_yGzGKck9-99" value="Control Logic" style="rounded=0;whiteSpace=wrap;html=1;fontFamily=jetbrains mono;fontSize=13;" parent="1" vertex="1">
          <mxGeometry x="551" y="890" width="199" height="80" as="geometry" />
        </mxCell>
        <mxCell id="bgm6wxLMQWX_yGzGKck9-152" value="" style="endArrow=diamond;html=1;rounded=0;endFill=1;endSize=6;targetPerimeterSpacing=0;sourcePerimeterSpacing=0;startArrow=none;startFill=0;exitX=0.5;exitY=0;exitDx=0;exitDy=0;" parent="1" source="bgm6wxLMQWX_yGzGKck9-153" edge="1">
          <mxGeometry width="50" height="50" relative="1" as="geometry">
            <mxPoint x="581.94" y="999.99" as="sourcePoint" />
            <mxPoint x="565" y="970" as="targetPoint" />
          </mxGeometry>
        </mxCell>
        <mxCell id="bgm6wxLMQWX_yGzGKck9-153" value="&lt;span style=&quot;font-size: 11px;&quot;&gt;T&lt;sub&gt;out&lt;/sub&gt;&lt;/span&gt;" style="rounded=0;whiteSpace=wrap;html=1;fontFamily=jetbrains mono;fontSize=13;strokeWidth=1;dashed=1;fillColor=#6666FF;" parent="1" vertex="1">
          <mxGeometry x="550" y="999.99" width="30" height="20" as="geometry" />
        </mxCell>
        <mxCell id="bgm6wxLMQWX_yGzGKck9-160" value="" style="endArrow=diamond;html=1;rounded=0;endFill=1;endSize=6;targetPerimeterSpacing=0;sourcePerimeterSpacing=0;startArrow=none;startFill=0;exitX=0.5;exitY=0;exitDx=0;exitDy=0;" parent="1" source="bgm6wxLMQWX_yGzGKck9-161" edge="1">
          <mxGeometry width="50" height="50" relative="1" as="geometry">
            <mxPoint x="620.94" y="1000" as="sourcePoint" />
            <mxPoint x="605" y="970" as="targetPoint" />
          </mxGeometry>
        </mxCell>
        <mxCell id="bgm6wxLMQWX_yGzGKck9-161" value="&lt;span style=&quot;font-size: 11px;&quot;&gt;FL&lt;/span&gt;&lt;sub&gt;out&lt;/sub&gt;" style="rounded=0;whiteSpace=wrap;html=1;fontFamily=jetbrains mono;fontSize=13;strokeWidth=1;dashed=1;fillColor=#6666FF;" parent="1" vertex="1">
          <mxGeometry x="590" y="1000" width="30" height="20" as="geometry" />
        </mxCell>
        <mxCell id="bgm6wxLMQWX_yGzGKck9-162" value="" style="endArrow=diamond;html=1;rounded=0;endFill=1;endSize=6;targetPerimeterSpacing=0;sourcePerimeterSpacing=0;startArrow=none;startFill=0;exitX=0.5;exitY=0;exitDx=0;exitDy=0;" parent="1" source="bgm6wxLMQWX_yGzGKck9-163" edge="1">
          <mxGeometry width="50" height="50" relative="1" as="geometry">
            <mxPoint x="660.94" y="999.99" as="sourcePoint" />
            <mxPoint x="645" y="969.99" as="targetPoint" />
          </mxGeometry>
        </mxCell>
        <mxCell id="bgm6wxLMQWX_yGzGKck9-163" value="&lt;span style=&quot;font-size: 11px;&quot;&gt;SC&lt;sub&gt;n=0&lt;/sub&gt;&lt;/span&gt;" style="rounded=0;whiteSpace=wrap;html=1;fontFamily=jetbrains mono;fontSize=13;strokeWidth=1;dashed=1;fillColor=#6666FF;" parent="1" vertex="1">
          <mxGeometry x="630" y="999.99" width="30" height="20" as="geometry" />
        </mxCell>
        <mxCell id="bgm6wxLMQWX_yGzGKck9-164" value="" style="endArrow=diamond;html=1;rounded=0;endFill=1;endSize=6;targetPerimeterSpacing=0;sourcePerimeterSpacing=0;startArrow=none;startFill=0;exitX=0.5;exitY=0;exitDx=0;exitDy=0;" parent="1" source="bgm6wxLMQWX_yGzGKck9-165" edge="1">
          <mxGeometry width="50" height="50" relative="1" as="geometry">
            <mxPoint x="700.94" y="999.99" as="sourcePoint" />
            <mxPoint x="685" y="969.99" as="targetPoint" />
          </mxGeometry>
        </mxCell>
        <mxCell id="bgm6wxLMQWX_yGzGKck9-165" value="" style="rounded=0;whiteSpace=wrap;html=1;fontFamily=jetbrains mono;fontSize=13;strokeWidth=1;dashed=1;fillColor=#6666FF;" parent="1" vertex="1">
          <mxGeometry x="670" y="999.99" width="30" height="20" as="geometry" />
        </mxCell>
        <mxCell id="bgm6wxLMQWX_yGzGKck9-167" value="" style="group" parent="1" vertex="1" connectable="0">
          <mxGeometry x="750.0000000000001" y="890" width="69.99999999999989" height="80" as="geometry" />
        </mxCell>
        <mxCell id="bgm6wxLMQWX_yGzGKck9-138" value="" style="endArrow=diamond;html=1;rounded=0;entryX=0;entryY=0.5;entryDx=0;entryDy=0;endFill=1;endSize=6;targetPerimeterSpacing=0;sourcePerimeterSpacing=0;startArrow=none;startFill=0;dashed=1;exitX=0;exitY=0.5;exitDx=0;exitDy=0;" parent="bgm6wxLMQWX_yGzGKck9-167" target="bgm6wxLMQWX_yGzGKck9-139" edge="1">
          <mxGeometry width="50" height="50" relative="1" as="geometry">
            <mxPoint y="5" as="sourcePoint" />
            <mxPoint x="38.999999999999886" y="5" as="targetPoint" />
          </mxGeometry>
        </mxCell>
        <mxCell id="bgm6wxLMQWX_yGzGKck9-139" value="" style="rounded=0;whiteSpace=wrap;html=1;fontFamily=jetbrains mono;fontSize=13;strokeWidth=1;dashed=1;fillColor=#FF4040;" parent="bgm6wxLMQWX_yGzGKck9-167" vertex="1">
          <mxGeometry x="39.999999999999886" width="30" height="10" as="geometry" />
        </mxCell>
        <mxCell id="bgm6wxLMQWX_yGzGKck9-142" value="" style="endArrow=diamond;html=1;rounded=0;entryX=0;entryY=0.5;entryDx=0;entryDy=0;endFill=1;endSize=6;targetPerimeterSpacing=0;sourcePerimeterSpacing=0;startArrow=none;startFill=0;dashed=1;exitX=0;exitY=0.5;exitDx=0;exitDy=0;" parent="bgm6wxLMQWX_yGzGKck9-167" target="bgm6wxLMQWX_yGzGKck9-143" edge="1">
          <mxGeometry width="50" height="50" relative="1" as="geometry">
            <mxPoint y="25" as="sourcePoint" />
            <mxPoint x="38.999999999999886" y="25" as="targetPoint" />
          </mxGeometry>
        </mxCell>
        <mxCell id="bgm6wxLMQWX_yGzGKck9-149" style="edgeStyle=orthogonalEdgeStyle;rounded=0;orthogonalLoop=1;jettySize=auto;html=1;endArrow=none;endFill=0;dashed=1;dashPattern=1 2;targetPerimeterSpacing=0;" parent="bgm6wxLMQWX_yGzGKck9-167" edge="1">
          <mxGeometry relative="1" as="geometry">
            <mxPoint x="54.95999999999992" y="33.5" as="sourcePoint" />
            <mxPoint x="54.95999999999992" y="48.5" as="targetPoint" />
          </mxGeometry>
        </mxCell>
        <mxCell id="bgm6wxLMQWX_yGzGKck9-143" value="" style="rounded=0;whiteSpace=wrap;html=1;fontFamily=jetbrains mono;fontSize=13;strokeWidth=1;dashed=1;fillColor=#FF4040;" parent="bgm6wxLMQWX_yGzGKck9-167" vertex="1">
          <mxGeometry x="39.999999999999886" y="20" width="30" height="10" as="geometry" />
        </mxCell>
        <mxCell id="bgm6wxLMQWX_yGzGKck9-144" value="" style="endArrow=diamond;html=1;rounded=0;entryX=0;entryY=0.5;entryDx=0;entryDy=0;endFill=1;endSize=6;targetPerimeterSpacing=0;sourcePerimeterSpacing=0;startArrow=none;startFill=0;dashed=1;exitX=0;exitY=0.5;exitDx=0;exitDy=0;" parent="bgm6wxLMQWX_yGzGKck9-167" target="bgm6wxLMQWX_yGzGKck9-145" edge="1">
          <mxGeometry width="50" height="50" relative="1" as="geometry">
            <mxPoint y="75" as="sourcePoint" />
            <mxPoint x="38.999999999999886" y="75" as="targetPoint" />
          </mxGeometry>
        </mxCell>
        <mxCell id="bgm6wxLMQWX_yGzGKck9-145" value="" style="rounded=0;whiteSpace=wrap;html=1;fontFamily=jetbrains mono;fontSize=13;strokeWidth=1;dashed=1;fillColor=#FF4040;" parent="bgm6wxLMQWX_yGzGKck9-167" vertex="1">
          <mxGeometry x="39.999999999999886" y="70" width="30" height="10" as="geometry" />
        </mxCell>
        <mxCell id="bgm6wxLMQWX_yGzGKck9-146" value="" style="endArrow=none;html=1;rounded=0;entryX=1;entryY=0.5;entryDx=0;entryDy=0;endFill=0;endSize=6;targetPerimeterSpacing=0;sourcePerimeterSpacing=0;startArrow=diamond;startFill=1;dashed=1;exitX=0;exitY=0.5;exitDx=0;exitDy=0;" parent="bgm6wxLMQWX_yGzGKck9-167" source="bgm6wxLMQWX_yGzGKck9-147" edge="1">
          <mxGeometry width="50" height="50" relative="1" as="geometry">
            <mxPoint x="38.999999999999886" y="55" as="sourcePoint" />
            <mxPoint y="55" as="targetPoint" />
          </mxGeometry>
        </mxCell>
        <mxCell id="bgm6wxLMQWX_yGzGKck9-147" value="" style="rounded=0;whiteSpace=wrap;html=1;fontFamily=jetbrains mono;fontSize=13;strokeWidth=1;dashed=1;fillColor=#FF4040;" parent="bgm6wxLMQWX_yGzGKck9-167" vertex="1">
          <mxGeometry x="39.999999999999886" y="50" width="30" height="10" as="geometry" />
        </mxCell>
        <mxCell id="bgm6wxLMQWX_yGzGKck9-168" value="" style="endArrow=diamond;html=1;rounded=0;endFill=1;endSize=6;targetPerimeterSpacing=0;sourcePerimeterSpacing=0;startArrow=none;startFill=0;exitX=0.5;exitY=0;exitDx=0;exitDy=0;" parent="1" source="bgm6wxLMQWX_yGzGKck9-169" edge="1">
          <mxGeometry width="50" height="50" relative="1" as="geometry">
            <mxPoint x="740.94" y="999.99" as="sourcePoint" />
            <mxPoint x="725" y="970" as="targetPoint" />
          </mxGeometry>
        </mxCell>
        <mxCell id="bgm6wxLMQWX_yGzGKck9-169" value="" style="rounded=0;whiteSpace=wrap;html=1;fontFamily=jetbrains mono;fontSize=13;strokeWidth=1;dashed=1;fillColor=#6666FF;" parent="1" vertex="1">
          <mxGeometry x="710" y="999.99" width="30" height="20" as="geometry" />
        </mxCell>
        <mxCell id="n07r1d7HXpZVxYv5g-Mc-19" value="Shift Control" style="rounded=0;whiteSpace=wrap;html=1;fontFamily=jetbrains mono;fontSize=13;" parent="1" vertex="1">
          <mxGeometry x="550" y="1029.9299999999998" width="80" height="40" as="geometry" />
        </mxCell>
        <mxCell id="n07r1d7HXpZVxYv5g-Mc-20" style="rounded=0;orthogonalLoop=1;jettySize=auto;html=1;startArrow=classic;startFill=1;endArrow=none;endFill=0;exitX=0;exitY=0.5;exitDx=0;exitDy=0;" parent="1" source="n07r1d7HXpZVxYv5g-Mc-19" edge="1">
          <mxGeometry relative="1" as="geometry">
            <mxPoint x="470" y="1050" as="targetPoint" />
            <mxPoint x="571" y="1150" as="sourcePoint" />
          </mxGeometry>
        </mxCell>
        <mxCell id="n07r1d7HXpZVxYv5g-Mc-21" value="" style="endArrow=diamond;html=1;rounded=0;endFill=1;endSize=6;targetPerimeterSpacing=0;sourcePerimeterSpacing=0;startArrow=none;startFill=0;exitX=0.5;exitY=0;exitDx=0;exitDy=0;" parent="1" source="n07r1d7HXpZVxYv5g-Mc-22" edge="1">
          <mxGeometry width="50" height="50" relative="1" as="geometry">
            <mxPoint x="586.94" y="1100" as="sourcePoint" />
            <mxPoint x="570" y="1070" as="targetPoint" />
          </mxGeometry>
        </mxCell>
        <mxCell id="n07r1d7HXpZVxYv5g-Mc-22" value="&lt;span style=&quot;font-size: 11px;&quot;&gt;SC&lt;sub&gt;ld&lt;/sub&gt;&lt;/span&gt;" style="rounded=0;whiteSpace=wrap;html=1;fontFamily=jetbrains mono;fontSize=13;strokeWidth=1;dashed=1;fillColor=#FF4040;" parent="1" vertex="1">
          <mxGeometry x="555" y="1090" width="30" height="20" as="geometry" />
        </mxCell>
        <mxCell id="n07r1d7HXpZVxYv5g-Mc-23" value="" style="endArrow=diamond;html=1;rounded=0;endFill=1;endSize=6;targetPerimeterSpacing=0;sourcePerimeterSpacing=0;startArrow=none;startFill=0;exitX=0.5;exitY=0;exitDx=0;exitDy=0;" parent="1" source="n07r1d7HXpZVxYv5g-Mc-24" edge="1">
          <mxGeometry width="50" height="50" relative="1" as="geometry">
            <mxPoint x="626.94" y="1099.9299999999998" as="sourcePoint" />
            <mxPoint x="610" y="1069.9299999999998" as="targetPoint" />
          </mxGeometry>
        </mxCell>
        <mxCell id="n07r1d7HXpZVxYv5g-Mc-24" value="&lt;span style=&quot;font-size: 11px;&quot;&gt;SC&lt;/span&gt;&lt;span style=&quot;font-size: 8.33333px;&quot;&gt;&lt;sub&gt;dec&lt;/sub&gt;&lt;/span&gt;" style="rounded=0;whiteSpace=wrap;html=1;fontFamily=jetbrains mono;fontSize=13;strokeWidth=1;dashed=1;fillColor=#FF4040;" parent="1" vertex="1">
          <mxGeometry x="595" y="1089.9299999999998" width="30" height="20" as="geometry" />
        </mxCell>
        <mxCell id="n07r1d7HXpZVxYv5g-Mc-25" value="&lt;span style=&quot;font-size: 11px;&quot;&gt;SC&lt;sub&gt;n=0&lt;/sub&gt;&lt;/span&gt;" style="rounded=0;whiteSpace=wrap;html=1;fontFamily=jetbrains mono;fontSize=13;strokeWidth=1;dashed=1;fillColor=#6666FF;" parent="1" vertex="1">
          <mxGeometry x="670" y="1039.9299999999998" width="30" height="20" as="geometry" />
        </mxCell>
        <mxCell id="n07r1d7HXpZVxYv5g-Mc-26" value="" style="endArrow=diamond;html=1;rounded=0;endFill=1;endSize=6;targetPerimeterSpacing=0;sourcePerimeterSpacing=0;startArrow=none;startFill=0;entryX=0;entryY=0.5;entryDx=0;entryDy=0;exitX=1;exitY=0.5;exitDx=0;exitDy=0;" parent="1" source="n07r1d7HXpZVxYv5g-Mc-19" target="n07r1d7HXpZVxYv5g-Mc-25" edge="1">
          <mxGeometry width="50" height="50" relative="1" as="geometry">
            <mxPoint x="740.94" y="1049.9299999999998" as="sourcePoint" />
            <mxPoint x="700.94" y="1049.9299999999998" as="targetPoint" />
            <Array as="points" />
          </mxGeometry>
        </mxCell>
        <mxCell id="n07r1d7HXpZVxYv5g-Mc-28" value="Timing Control" style="rounded=0;whiteSpace=wrap;html=1;fontFamily=jetbrains mono;fontSize=13;" parent="1" vertex="1">
          <mxGeometry x="550" y="790" width="160" height="80" as="geometry" />
        </mxCell>
        <mxCell id="n07r1d7HXpZVxYv5g-Mc-29" value="&lt;span style=&quot;font-size: 11px;&quot;&gt;T&lt;/span&gt;&lt;sub&gt;out&lt;/sub&gt;" style="rounded=0;whiteSpace=wrap;html=1;fontFamily=jetbrains mono;fontSize=13;strokeWidth=1;dashed=1;fillColor=#6666FF;" parent="1" vertex="1">
          <mxGeometry x="750" y="800" width="30" height="20" as="geometry" />
        </mxCell>
        <mxCell id="n07r1d7HXpZVxYv5g-Mc-30" value="" style="endArrow=diamond;html=1;rounded=0;endFill=1;endSize=6;targetPerimeterSpacing=0;sourcePerimeterSpacing=0;startArrow=none;startFill=0;entryX=0;entryY=0.5;entryDx=0;entryDy=0;exitX=1;exitY=0.25;exitDx=0;exitDy=0;" parent="1" source="n07r1d7HXpZVxYv5g-Mc-28" target="n07r1d7HXpZVxYv5g-Mc-29" edge="1">
          <mxGeometry width="50" height="50" relative="1" as="geometry">
            <mxPoint x="711" y="810.0699999999999" as="sourcePoint" />
            <mxPoint x="781.94" y="810" as="targetPoint" />
            <Array as="points" />
          </mxGeometry>
        </mxCell>
        <mxCell id="n07r1d7HXpZVxYv5g-Mc-32" value="" style="endArrow=diamond;html=1;rounded=0;endFill=1;endSize=6;targetPerimeterSpacing=0;sourcePerimeterSpacing=0;startArrow=none;startFill=0;exitX=0;exitY=0.5;exitDx=0;exitDy=0;" parent="1" source="n07r1d7HXpZVxYv5g-Mc-33" edge="1">
          <mxGeometry width="50" height="50" relative="1" as="geometry">
            <mxPoint x="781.94" y="840" as="sourcePoint" />
            <mxPoint x="710" y="840" as="targetPoint" />
          </mxGeometry>
        </mxCell>
        <mxCell id="n07r1d7HXpZVxYv5g-Mc-33" value="&lt;span style=&quot;font-size: 11px;&quot;&gt;TC&lt;/span&gt;&lt;font size=&quot;1&quot;&gt;&lt;sub&gt;rst&lt;/sub&gt;&lt;/font&gt;" style="rounded=0;whiteSpace=wrap;html=1;fontFamily=jetbrains mono;fontSize=13;strokeWidth=1;dashed=1;fillColor=#FF4040;" parent="1" vertex="1">
          <mxGeometry x="750" y="830" width="30.94" height="20" as="geometry" />
        </mxCell>
        <mxCell id="f0YBtFWHTB3nNhvCSGX3-1" value="A-REG" style="rounded=0;whiteSpace=wrap;html=1;fontFamily=jetbrains mono;fontSize=13;" vertex="1" parent="1">
          <mxGeometry x="160" y="140" width="80" height="40" as="geometry" />
        </mxCell>
        <mxCell id="f0YBtFWHTB3nNhvCSGX3-2" value="B-REG" style="rounded=0;whiteSpace=wrap;html=1;fontFamily=jetbrains mono;fontSize=13;" vertex="1" parent="1">
          <mxGeometry x="160" y="200" width="80" height="40" as="geometry" />
        </mxCell>
        <mxCell id="f0YBtFWHTB3nNhvCSGX3-3" value="C-REG" style="rounded=0;whiteSpace=wrap;html=1;fontFamily=jetbrains mono;fontSize=13;" vertex="1" parent="1">
          <mxGeometry x="160" y="260" width="80" height="40" as="geometry" />
        </mxCell>
        <mxCell id="f0YBtFWHTB3nNhvCSGX3-4" value="D-REG" style="rounded=0;whiteSpace=wrap;html=1;fontFamily=jetbrains mono;fontSize=13;" vertex="1" parent="1">
          <mxGeometry x="160" y="320" width="80" height="40" as="geometry" />
        </mxCell>
        <mxCell id="f0YBtFWHTB3nNhvCSGX3-5" value="SP" style="rounded=0;whiteSpace=wrap;html=1;fontFamily=jetbrains mono;fontSize=13;" vertex="1" parent="1">
          <mxGeometry x="160" y="80" width="80" height="40" as="geometry" />
        </mxCell>
        <mxCell id="f0YBtFWHTB3nNhvCSGX3-6" value="L-REG" style="rounded=0;whiteSpace=wrap;html=1;fontFamily=jetbrains mono;fontSize=13;" vertex="1" parent="1">
          <mxGeometry x="160" y="380" width="80" height="40" as="geometry" />
        </mxCell>
        <mxCell id="f0YBtFWHTB3nNhvCSGX3-7" value="H-REG" style="rounded=0;whiteSpace=wrap;html=1;fontFamily=jetbrains mono;fontSize=13;" vertex="1" parent="1">
          <mxGeometry x="160" y="440" width="80" height="40" as="geometry" />
        </mxCell>
        <mxCell id="f0YBtFWHTB3nNhvCSGX3-8" value="F-REG" style="rounded=0;whiteSpace=wrap;html=1;fontFamily=jetbrains mono;fontSize=13;" vertex="1" parent="1">
          <mxGeometry x="160" y="500" width="80" height="40" as="geometry" />
        </mxCell>
        <mxCell id="f0YBtFWHTB3nNhvCSGX3-9" value="" style="group" vertex="1" connectable="0" parent="1">
          <mxGeometry x="30" y="950" width="310.94" height="280" as="geometry" />
        </mxCell>
        <mxCell id="bgm6wxLMQWX_yGzGKck9-151" value="g" style="rounded=0;whiteSpace=wrap;html=1;fontFamily=jetbrains mono;fontSize=13;" parent="f0YBtFWHTB3nNhvCSGX3-9" vertex="1">
          <mxGeometry x="40.94" width="245" height="280" as="geometry" />
        </mxCell>
        <mxCell id="bgm6wxLMQWX_yGzGKck9-29" value="" style="shape=stencil(bZJBbsMgEEXP0gVLRwTayls3bVZdRekBXBvbKARHgILb03eGoRFuI1k282c+/IfM5M5fRyb4cjbWM/nKhJhCuDDZMLGHJ8a4iXIzOxjaC845fJJDgCnqPkxk2mIHtUnpcQok1lm7ahVf5oVE0HCWJwenEfnGOByIApO7h6qCxUF1obWjUbB26uKUVzZoi2HDhGLz/gFvmF27HfgQ6DcXRfhal0Xy+k7w56wN2hhS7GwVaT64+aRI/TRtdyrlqthYUAPv8R7fUS2YU9ted20GA0eiEqnhda9utK64jn/MgfbKzPJpxfyYy2G2oRrasza50TjdmqLn9Xfm2tZ/+W+k5cHpwcBFFMBNaWgu1fi/pPIH);whiteSpace=wrap;html=1;fontSize=13;" parent="f0YBtFWHTB3nNhvCSGX3-9" vertex="1">
          <mxGeometry x="80" y="100" width="120" height="120" as="geometry" />
        </mxCell>
        <mxCell id="bgm6wxLMQWX_yGzGKck9-70" style="edgeStyle=none;rounded=0;orthogonalLoop=1;jettySize=auto;html=1;exitX=0.25;exitY=1;exitDx=0;exitDy=0;entryX=0;entryY=0.899;entryDx=0;entryDy=0;entryPerimeter=0;" parent="f0YBtFWHTB3nNhvCSGX3-9" source="bgm6wxLMQWX_yGzGKck9-61" target="bgm6wxLMQWX_yGzGKck9-58" edge="1">
          <mxGeometry relative="1" as="geometry">
            <mxPoint x="90.94" y="80" as="targetPoint" />
          </mxGeometry>
        </mxCell>
        <mxCell id="bgm6wxLMQWX_yGzGKck9-73" style="edgeStyle=orthogonalEdgeStyle;rounded=0;orthogonalLoop=1;jettySize=auto;html=1;startArrow=classic;startFill=1;endArrow=none;endFill=0;exitX=1;exitY=0.5;exitDx=0;exitDy=0;" parent="f0YBtFWHTB3nNhvCSGX3-9" source="bgm6wxLMQWX_yGzGKck9-61" edge="1">
          <mxGeometry relative="1" as="geometry">
            <mxPoint x="310.94" y="30" as="targetPoint" />
            <mxPoint x="100.94" y="30" as="sourcePoint" />
          </mxGeometry>
        </mxCell>
        <mxCell id="bgm6wxLMQWX_yGzGKck9-61" value="A" style="rounded=0;whiteSpace=wrap;html=1;fontFamily=jetbrains mono;fontSize=13;" parent="f0YBtFWHTB3nNhvCSGX3-9" vertex="1">
          <mxGeometry x="70.94" y="10" width="80" height="40" as="geometry" />
        </mxCell>
        <mxCell id="bgm6wxLMQWX_yGzGKck9-69" value="" style="group" parent="f0YBtFWHTB3nNhvCSGX3-9" vertex="1" connectable="0">
          <mxGeometry x="70.945" y="89.995" width="198.75" height="80.93500000000006" as="geometry" />
        </mxCell>
        <mxCell id="bgm6wxLMQWX_yGzGKck9-58" value="" style="shape=stencil(tZXRjoIwEEW/pq+bQsPq6wb1PyqOS2NtSdvV3b93oGCs0I0IJISkc7mHIb1DCcttySsgKS0J25A0TSjFO66vT2tuKyicL164EXwvwSvWGX2Cqzi4liFUCUa4WmVbQr/wmfpieaGVQojQygbKg44wLhR66a+Hta//C1YV8s/gwLRNNtXd68yPbAFqskSnIbPre95OZ6KGvSaL7NQ81ORNJsuxEgsxy/e8OH0b/aMOfVdUO2oDA8JdFlL6AYt9YMXruesJnXzWF/h/moawnVsK9eC+/wxaP5sKWI0FPGWMTvOvx9qz0P+ZTfOzsf7Q/sL+FVLbaHKwHgkPHguDmWs8vcQ2VX+ONIUb);whiteSpace=wrap;html=1;rotation=90;strokeWidth=1.5;fontSize=13;container=0;points=[[0,0,0,0,0],[0,0.3,0,-38,0],[0,1,0,0,0],[0.5,0,0,0,0],[0.5,1,0,0,0],[1,0.3,0,39,0],[1,0.5,0,0,0]];" parent="bgm6wxLMQWX_yGzGKck9-69" vertex="1">
          <mxGeometry x="59.065" y="-59.06499999999994" width="80.62" height="198.75" as="geometry" />
        </mxCell>
        <mxCell id="bgm6wxLMQWX_yGzGKck9-60" value="&lt;font face=&quot;jetbrains mono&quot; style=&quot;font-size: 21px;&quot;&gt;ALU&lt;/font&gt;" style="text;strokeColor=none;align=center;fillColor=none;html=1;verticalAlign=middle;whiteSpace=wrap;rounded=0;fontSize=21;container=0;" parent="bgm6wxLMQWX_yGzGKck9-69" vertex="1">
          <mxGeometry x="69.375" y="40.93500000000006" width="59.37" height="40" as="geometry" />
        </mxCell>
        <mxCell id="bgm6wxLMQWX_yGzGKck9-71" value="" style="edgeStyle=none;orthogonalLoop=1;jettySize=auto;html=1;rounded=0;entryX=0;entryY=0.094;entryDx=0;entryDy=0;entryPerimeter=0;" parent="f0YBtFWHTB3nNhvCSGX3-9" target="bgm6wxLMQWX_yGzGKck9-58" edge="1">
          <mxGeometry width="80" relative="1" as="geometry">
            <mxPoint x="310.94" y="50" as="sourcePoint" />
            <mxPoint x="210.94" y="90" as="targetPoint" />
            <Array as="points">
              <mxPoint x="250.94" y="50" />
            </Array>
          </mxGeometry>
        </mxCell>
        <mxCell id="bgm6wxLMQWX_yGzGKck9-97" value="&lt;font face=&quot;jetbrains mono&quot;&gt;8b&lt;/font&gt;" style="edgeLabel;html=1;align=center;verticalAlign=middle;resizable=0;points=[];" parent="f0YBtFWHTB3nNhvCSGX3-9" vertex="1" connectable="0">
          <mxGeometry x="270.9384615384615" y="29.999999999999886" as="geometry" />
        </mxCell>
        <mxCell id="bgm6wxLMQWX_yGzGKck9-98" value="&lt;font face=&quot;jetbrains mono&quot;&gt;8b&lt;/font&gt;" style="edgeLabel;html=1;align=center;verticalAlign=middle;resizable=0;points=[];" parent="f0YBtFWHTB3nNhvCSGX3-9" vertex="1" connectable="0">
          <mxGeometry x="270.9384615384615" y="49.999999999999886" as="geometry" />
        </mxCell>
        <mxCell id="bgm6wxLMQWX_yGzGKck9-102" style="edgeStyle=orthogonalEdgeStyle;rounded=0;orthogonalLoop=1;jettySize=auto;html=1;exitX=1;exitY=0.5;exitDx=0;exitDy=0;" parent="f0YBtFWHTB3nNhvCSGX3-9" source="bgm6wxLMQWX_yGzGKck9-130" edge="1">
          <mxGeometry relative="1" as="geometry">
            <mxPoint x="310.94" y="220" as="targetPoint" />
            <mxPoint x="280.94" y="220" as="sourcePoint" />
          </mxGeometry>
        </mxCell>
        <mxCell id="bgm6wxLMQWX_yGzGKck9-100" value="C" style="rounded=0;whiteSpace=wrap;html=1;fontFamily=jetbrains mono;fontSize=13;" parent="f0YBtFWHTB3nNhvCSGX3-9" vertex="1">
          <mxGeometry x="130" y="200" width="80" height="40" as="geometry" />
        </mxCell>
        <mxCell id="bgm6wxLMQWX_yGzGKck9-101" style="edgeStyle=orthogonalEdgeStyle;rounded=0;orthogonalLoop=1;jettySize=auto;html=1;entryX=0.5;entryY=0;entryDx=0;entryDy=0;" parent="f0YBtFWHTB3nNhvCSGX3-9" source="bgm6wxLMQWX_yGzGKck9-60" target="bgm6wxLMQWX_yGzGKck9-100" edge="1">
          <mxGeometry relative="1" as="geometry" />
        </mxCell>
        <mxCell id="bgm6wxLMQWX_yGzGKck9-104" value="&lt;font face=&quot;jetbrains mono&quot;&gt;8b&lt;/font&gt;" style="edgeLabel;html=1;align=center;verticalAlign=middle;resizable=0;points=[];" parent="f0YBtFWHTB3nNhvCSGX3-9" vertex="1" connectable="0">
          <mxGeometry x="270.9384615384615" y="219.9999999999999" as="geometry" />
        </mxCell>
        <mxCell id="bgm6wxLMQWX_yGzGKck9-128" value="" style="endArrow=diamond;html=1;rounded=0;endFill=1;endSize=6;targetPerimeterSpacing=0;sourcePerimeterSpacing=0;startArrow=none;startFill=0;exitX=1;exitY=0.5;exitDx=0;exitDy=0;" parent="f0YBtFWHTB3nNhvCSGX3-9" source="bgm6wxLMQWX_yGzGKck9-129" edge="1">
          <mxGeometry width="50" height="50" relative="1" as="geometry">
            <mxPoint x="211.88" y="260" as="sourcePoint" />
            <mxPoint x="249.94" y="227" as="targetPoint" />
            <Array as="points">
              <mxPoint x="250.94" y="260" />
            </Array>
          </mxGeometry>
        </mxCell>
        <mxCell id="bgm6wxLMQWX_yGzGKck9-129" value="&lt;font style=&quot;font-size: 11px;&quot;&gt;C&lt;sub&gt;out&lt;/sub&gt;&lt;/font&gt;" style="rounded=0;whiteSpace=wrap;html=1;fontFamily=jetbrains mono;fontSize=13;strokeWidth=1;dashed=1;fillColor=#FF4040;" parent="f0YBtFWHTB3nNhvCSGX3-9" vertex="1">
          <mxGeometry y="250" width="30.94" height="20" as="geometry" />
        </mxCell>
        <mxCell id="bgm6wxLMQWX_yGzGKck9-131" style="edgeStyle=orthogonalEdgeStyle;rounded=0;orthogonalLoop=1;jettySize=auto;html=1;exitX=0;exitY=0.5;exitDx=0;exitDy=0;entryX=1;entryY=0.5;entryDx=0;entryDy=0;startArrow=none;startFill=0;endArrow=none;endFill=0;" parent="f0YBtFWHTB3nNhvCSGX3-9" source="bgm6wxLMQWX_yGzGKck9-130" target="bgm6wxLMQWX_yGzGKck9-100" edge="1">
          <mxGeometry relative="1" as="geometry" />
        </mxCell>
        <mxCell id="bgm6wxLMQWX_yGzGKck9-130" value="" style="verticalLabelPosition=bottom;shadow=0;dashed=0;align=center;html=1;verticalAlign=top;shape=mxgraph.electrical.logic_gates.buffer2;" parent="f0YBtFWHTB3nNhvCSGX3-9" vertex="1">
          <mxGeometry x="229.7" y="205" width="40" height="30" as="geometry" />
        </mxCell>
        <mxCell id="bgm6wxLMQWX_yGzGKck9-132" value="" style="endArrow=diamond;html=1;rounded=0;entryX=0;entryY=0.25;entryDx=0;entryDy=0;endFill=1;endSize=6;targetPerimeterSpacing=0;sourcePerimeterSpacing=0;startArrow=none;startFill=0;exitX=1;exitY=0.5;exitDx=0;exitDy=0;" parent="f0YBtFWHTB3nNhvCSGX3-9" source="bgm6wxLMQWX_yGzGKck9-133" edge="1">
          <mxGeometry width="50" height="50" relative="1" as="geometry">
            <mxPoint x="90" y="220" as="sourcePoint" />
            <mxPoint x="130" y="220" as="targetPoint" />
          </mxGeometry>
        </mxCell>
        <mxCell id="bgm6wxLMQWX_yGzGKck9-133" value="&lt;span style=&quot;font-size: 11px;&quot;&gt;C&lt;sub&gt;in&lt;/sub&gt;&lt;/span&gt;" style="rounded=0;whiteSpace=wrap;html=1;fontFamily=jetbrains mono;fontSize=13;strokeWidth=1;dashed=1;fillColor=#FF4040;" parent="f0YBtFWHTB3nNhvCSGX3-9" vertex="1">
          <mxGeometry y="210" width="30.94" height="20" as="geometry" />
        </mxCell>
        <mxCell id="bgm6wxLMQWX_yGzGKck9-134" value="" style="endArrow=diamond;html=1;rounded=0;entryX=0;entryY=0.25;entryDx=0;entryDy=0;endFill=1;endSize=6;targetPerimeterSpacing=0;sourcePerimeterSpacing=0;startArrow=none;startFill=0;exitX=1;exitY=0.5;exitDx=0;exitDy=0;" parent="f0YBtFWHTB3nNhvCSGX3-9" source="bgm6wxLMQWX_yGzGKck9-135" edge="1">
          <mxGeometry width="50" height="50" relative="1" as="geometry">
            <mxPoint x="30.939999999999998" y="30" as="sourcePoint" />
            <mxPoint x="70.94" y="30" as="targetPoint" />
          </mxGeometry>
        </mxCell>
        <mxCell id="bgm6wxLMQWX_yGzGKck9-135" value="&lt;span style=&quot;font-size: 11px;&quot;&gt;A&lt;sub&gt;in&lt;/sub&gt;&lt;/span&gt;" style="rounded=0;whiteSpace=wrap;html=1;fontFamily=jetbrains mono;fontSize=13;strokeWidth=1;dashed=1;fillColor=#FF4040;" parent="f0YBtFWHTB3nNhvCSGX3-9" vertex="1">
          <mxGeometry y="20" width="30.94" height="20" as="geometry" />
        </mxCell>
        <mxCell id="n07r1d7HXpZVxYv5g-Mc-14" value="&lt;span style=&quot;font-size: 11px;&quot;&gt;ALU&lt;sub&gt;c&lt;/sub&gt;&lt;/span&gt;" style="rounded=0;whiteSpace=wrap;html=1;fontFamily=jetbrains mono;fontSize=13;strokeWidth=1;dashed=1;fillColor=#FF4040;" parent="f0YBtFWHTB3nNhvCSGX3-9" vertex="1">
          <mxGeometry y="115" width="30.94" height="20" as="geometry" />
        </mxCell>
        <mxCell id="n07r1d7HXpZVxYv5g-Mc-15" value="" style="endArrow=diamond;html=1;rounded=0;endFill=1;endSize=6;targetPerimeterSpacing=0;sourcePerimeterSpacing=0;startArrow=none;startFill=0;exitX=1;exitY=0.5;exitDx=0;exitDy=0;" parent="f0YBtFWHTB3nNhvCSGX3-9" edge="1">
          <mxGeometry width="50" height="50" relative="1" as="geometry">
            <mxPoint x="30.939999999999998" y="125" as="sourcePoint" />
            <mxPoint x="95.94" y="124" as="targetPoint" />
          </mxGeometry>
        </mxCell>
        <mxCell id="n07r1d7HXpZVxYv5g-Mc-16" value="&lt;span style=&quot;font-size: 11px;&quot;&gt;FL&lt;sub&gt;out&lt;/sub&gt;&lt;/span&gt;" style="rounded=0;whiteSpace=wrap;html=1;fontFamily=jetbrains mono;fontSize=13;strokeWidth=1;dashed=1;fillColor=#6666FF;" parent="f0YBtFWHTB3nNhvCSGX3-9" vertex="1">
          <mxGeometry x="0.9399999999999977" y="145" width="30" height="20" as="geometry" />
        </mxCell>
        <mxCell id="n07r1d7HXpZVxYv5g-Mc-17" value="" style="endArrow=diamond;html=1;rounded=0;endFill=1;endSize=6;targetPerimeterSpacing=0;sourcePerimeterSpacing=0;startArrow=none;startFill=0;entryX=1;entryY=0.5;entryDx=0;entryDy=0;" parent="f0YBtFWHTB3nNhvCSGX3-9" target="n07r1d7HXpZVxYv5g-Mc-16" edge="1">
          <mxGeometry width="50" height="50" relative="1" as="geometry">
            <mxPoint x="117.94" y="155" as="sourcePoint" />
            <mxPoint x="30.939999999999998" y="155" as="targetPoint" />
            <Array as="points" />
          </mxGeometry>
        </mxCell>
        <mxCell id="n07r1d7HXpZVxYv5g-Mc-18" value="&lt;font face=&quot;jetbrains mono&quot;&gt;4b&lt;/font&gt;" style="edgeLabel;html=1;align=center;verticalAlign=middle;resizable=0;points=[];" parent="n07r1d7HXpZVxYv5g-Mc-17" vertex="1" connectable="0">
          <mxGeometry x="-0.05" y="1" relative="1" as="geometry">
            <mxPoint x="-1" y="-1" as="offset" />
          </mxGeometry>
        </mxCell>
      </root>
    </mxGraphModel>
  </diagram>
</mxfile>
